<svg height="395pt" viewBox="-47 0 395 395.94667" width="395pt" xmlns="http://www.w3.org/2000/svg"><path d="m210.535156 395.945312h-119.75c-12.15625 0-22.046875-9.890624-22.046875-22.046874v-66.699219h-28.472656c-21.941406 0-39.792969-17.851563-39.792969-39.792969v-117.21875c0-82.8125 67.375-150.1875 150.1875-150.1875s150.1875 67.375 150.1875 150.1875v117.21875c0 21.941406-17.851562 39.792969-39.792968 39.792969h-28.476563v66.699219c0 12.15625-9.886719 22.046874-22.042969 22.046874zm-59.875-382.292968c-75.28125 0-136.535156 61.25-136.535156 136.535156v117.21875c0 14.414062 11.726562 26.140625 26.140625 26.140625h35.300781c3.769532 0 6.828125 3.054687 6.828125 6.828125v73.523438c0 4.628906 3.765625 8.394531 8.390625 8.394531h119.75c4.625 0 8.390625-3.765625 8.390625-8.394531v-73.523438c0-3.773438 3.058594-6.828125 6.828125-6.828125h35.300782c14.414062 0 26.136718-11.726563 26.136718-26.140625v-117.21875c0-75.285156-61.25-136.535156-136.53125-136.535156zm0 0"/><path d="m273.539062 241.890625c0-22.433594-29.789062-52.222656-52.222656-52.222656s-40.617187 18.183593-40.617187 40.617187 18.183593 40.621094 40.617187 40.621094 52.222656-6.582031 52.222656-29.015625zm0 0"/><path d="m30.511719 241.890625c0-22.433594 29.789062-52.222656 52.222656-52.222656s40.617187 18.183593 40.617187 40.617187-18.183593 40.621094-40.617187 40.621094-52.222656-6.582031-52.222656-29.015625zm0 0"/><path d="m109.699219 395.945312c-3.769531 0-6.824219-3.050781-6.824219-6.824218v-20.480469c0-3.773437 3.054688-6.828125 6.824219-6.828125s6.828125 3.054688 6.828125 6.828125v20.480469c0 3.773437-3.058594 6.824218-6.828125 6.824218zm0 0"/><path d="m137.007812 395.945312c-3.769531 0-6.828124-3.050781-6.828124-6.824218v-20.480469c0-3.773437 3.058593-6.828125 6.828124-6.828125 3.769532 0 6.824219 3.054688 6.824219 6.828125v20.480469c0 3.773437-3.054687 6.824218-6.824219 6.824218zm0 0"/><path d="m164.3125 395.945312c-3.769531 0-6.824219-3.050781-6.824219-6.824218v-20.480469c0-3.773437 3.054688-6.828125 6.824219-6.828125s6.828125 3.054688 6.828125 6.828125v20.480469c0 3.773437-3.058594 6.824218-6.828125 6.824218zm0 0"/><path d="m191.621094 395.945312c-3.769532 0-6.828125-3.050781-6.828125-6.824218v-20.480469c0-3.773437 3.058593-6.828125 6.828125-6.828125 3.769531 0 6.824218 3.054688 6.824218 6.828125v20.480469c0 3.773437-3.054687 6.824218-6.824218 6.824218zm0 0"/><path d="m147.125 264.71875-19.367188 29.046875c-1.882812 2.824219.140626 6.609375 3.535157 6.609375h38.734375c3.394531 0 5.417968-3.785156 3.535156-6.609375l-19.367188-29.046875c-1.683593-2.523438-5.390624-2.523438-7.070312 0zm0 0"/></svg>